<svg id="logosandtypes_com" xmlns="http://www.w3.org/2000/svg" viewBox="0 0 150 150.2"><path d="M0 .2h150v150H0V.2z" fill="none"/><linearGradient id="a" gradientUnits="userSpaceOnUse" x1="21.1003" y1="126.1365" x2="127.2548" y2="37.062" gradientTransform="matrix(1 0 0 -1 0 152)"><stop offset="0" stop-color="#e2f4fd"/><stop offset=".065" stop-color="#dcf0fc"/><stop offset=".15" stop-color="#cbe6f8"/><stop offset=".246" stop-color="#afd8f3"/><stop offset=".35" stop-color="#86c6ec"/><stop offset=".46" stop-color="#4cb2e5"/><stop offset=".494" stop-color="#2bace2"/><stop offset=".772" stop-color="#554d7c"/><stop offset=".912" stop-color="#531d5b"/><stop offset="1" stop-color="#531d5b"/></linearGradient><path d="M17.1 71c10.6 14.4 25.1 20.5 25.1 20.5S28.5 79.7 20.4 66.6C13.3 54.9 8.3 41.1 8.3 41.1s-1.4 16 8.8 29.9m29.6-51v75s4.7 3.2 11.8 5c7.7 2 13.1 2.1 13.1 2.1V37.9c2.1-.5 5.8-.9 11.2-.9 21.3 0 34.6 12.1 34.5 35.1 0 26.4-14.9 38.3-37.2 37.7-15.5-.5-31.1-2.1-51.6-16.4C8.8 79.5.4 57.8.4 57.8c6.4 26.7 26.9 51.5 57.3 57.9 30.7 6.4 53-1.4 64.7-18.1 16.1-23.2 3-47.5 3-47.5s16.2 20.5.6 48c-10.2 17.6-33.7 29.2-70.6 21.4C28.2 113.7 14.7 98.1 6 87c0 0 7.7 20.2 28.2 32.7 29.6 17.8 109.5 20.2 109.5-47.4 0-19.4-7.1-34-18.5-42.7-10.6-8-24.1-11.8-45-11.8-12.5-.1-24.4.7-33.5 2.2" fill="url(#a)"/></svg>